<mxfile host="app.diagrams.net" agent="Mozilla/5.0 (Windows NT 10.0; Win64; x64) AppleWebKit/537.36 (KHTML, like Gecko) Chrome/123.0.0.0 Safari/537.36 OPR/109.0.0.0" version="24.7.10">
  <diagram name="Страница — 1" id="_U1Tro5puMCV4MsrZ6k9">
    <mxGraphModel dx="1187" dy="684" grid="1" gridSize="10" guides="1" tooltips="1" connect="1" arrows="1" fold="1" page="1" pageScale="1" pageWidth="827" pageHeight="1169" math="0" shadow="0">
      <root>
        <mxCell id="0" />
        <mxCell id="1" parent="0" />
        <mxCell id="NoZysELx-QJ5flpKnzf8-2" value="Начало" style="strokeWidth=2;html=1;shape=mxgraph.flowchart.terminator;whiteSpace=wrap;" vertex="1" parent="1">
          <mxGeometry x="540" y="20" width="100" height="50" as="geometry" />
        </mxCell>
        <mxCell id="NoZysELx-QJ5flpKnzf8-4" style="edgeStyle=orthogonalEdgeStyle;rounded=0;orthogonalLoop=1;jettySize=auto;html=1;exitX=0.5;exitY=1;exitDx=0;exitDy=0;exitPerimeter=0;entryX=0.5;entryY=0;entryDx=0;entryDy=0;" edge="1" parent="1" source="NoZysELx-QJ5flpKnzf8-2" target="NoZysELx-QJ5flpKnzf8-5">
          <mxGeometry relative="1" as="geometry">
            <mxPoint x="589.5" y="104.03999999999996" as="targetPoint" />
          </mxGeometry>
        </mxCell>
        <mxCell id="NoZysELx-QJ5flpKnzf8-9" style="edgeStyle=orthogonalEdgeStyle;rounded=0;orthogonalLoop=1;jettySize=auto;html=1;exitX=0.5;exitY=1;exitDx=0;exitDy=0;entryX=0.5;entryY=0;entryDx=0;entryDy=0;" edge="1" parent="1" source="NoZysELx-QJ5flpKnzf8-5" target="NoZysELx-QJ5flpKnzf8-8">
          <mxGeometry relative="1" as="geometry" />
        </mxCell>
        <mxCell id="NoZysELx-QJ5flpKnzf8-5" value="Ввод a, b, c" style="shape=parallelogram;perimeter=parallelogramPerimeter;whiteSpace=wrap;html=1;fixedSize=1;" vertex="1" parent="1">
          <mxGeometry x="530" y="110" width="120" height="60" as="geometry" />
        </mxCell>
        <mxCell id="NoZysELx-QJ5flpKnzf8-12" style="edgeStyle=orthogonalEdgeStyle;rounded=0;orthogonalLoop=1;jettySize=auto;html=1;exitX=0.5;exitY=1;exitDx=0;exitDy=0;" edge="1" parent="1" source="NoZysELx-QJ5flpKnzf8-6" target="NoZysELx-QJ5flpKnzf8-11">
          <mxGeometry relative="1" as="geometry" />
        </mxCell>
        <mxCell id="NoZysELx-QJ5flpKnzf8-6" value="&lt;font style=&quot;font-size: 12px;&quot;&gt;S:=&lt;span style=&quot;font-family: &amp;quot;Google Sans&amp;quot;, Arial, sans-serif; text-align: left; background-color: rgb(255, 255, 255);&quot;&gt;√(p(p-a)(p-b)(p-c))&lt;/span&gt;&lt;/font&gt;" style="rounded=0;whiteSpace=wrap;html=1;" vertex="1" parent="1">
          <mxGeometry x="530" y="290" width="120" height="60" as="geometry" />
        </mxCell>
        <mxCell id="NoZysELx-QJ5flpKnzf8-10" style="edgeStyle=orthogonalEdgeStyle;rounded=0;orthogonalLoop=1;jettySize=auto;html=1;exitX=0.5;exitY=1;exitDx=0;exitDy=0;entryX=0.5;entryY=0;entryDx=0;entryDy=0;" edge="1" parent="1" source="NoZysELx-QJ5flpKnzf8-8" target="NoZysELx-QJ5flpKnzf8-6">
          <mxGeometry relative="1" as="geometry" />
        </mxCell>
        <mxCell id="NoZysELx-QJ5flpKnzf8-8" value="p := (a + b + c) / 2" style="rounded=0;whiteSpace=wrap;html=1;" vertex="1" parent="1">
          <mxGeometry x="530" y="200" width="120" height="60" as="geometry" />
        </mxCell>
        <mxCell id="NoZysELx-QJ5flpKnzf8-11" value="Вывод S" style="shape=parallelogram;perimeter=parallelogramPerimeter;whiteSpace=wrap;html=1;fixedSize=1;" vertex="1" parent="1">
          <mxGeometry x="530" y="380" width="120" height="60" as="geometry" />
        </mxCell>
        <mxCell id="NoZysELx-QJ5flpKnzf8-13" value="Конец" style="strokeWidth=2;html=1;shape=mxgraph.flowchart.terminator;whiteSpace=wrap;" vertex="1" parent="1">
          <mxGeometry x="540" y="470" width="100" height="50" as="geometry" />
        </mxCell>
        <mxCell id="NoZysELx-QJ5flpKnzf8-14" style="edgeStyle=orthogonalEdgeStyle;rounded=0;orthogonalLoop=1;jettySize=auto;html=1;exitX=0.5;exitY=1;exitDx=0;exitDy=0;entryX=0.5;entryY=0;entryDx=0;entryDy=0;entryPerimeter=0;" edge="1" parent="1" source="NoZysELx-QJ5flpKnzf8-11" target="NoZysELx-QJ5flpKnzf8-13">
          <mxGeometry relative="1" as="geometry" />
        </mxCell>
        <mxCell id="NoZysELx-QJ5flpKnzf8-17" style="edgeStyle=orthogonalEdgeStyle;rounded=0;orthogonalLoop=1;jettySize=auto;html=1;exitX=0.5;exitY=1;exitDx=0;exitDy=0;exitPerimeter=0;" edge="1" parent="1" source="NoZysELx-QJ5flpKnzf8-15" target="NoZysELx-QJ5flpKnzf8-16">
          <mxGeometry relative="1" as="geometry" />
        </mxCell>
        <mxCell id="NoZysELx-QJ5flpKnzf8-15" value="Начало" style="strokeWidth=2;html=1;shape=mxgraph.flowchart.terminator;whiteSpace=wrap;" vertex="1" parent="1">
          <mxGeometry x="150" y="20" width="100" height="50" as="geometry" />
        </mxCell>
        <mxCell id="NoZysELx-QJ5flpKnzf8-19" style="edgeStyle=orthogonalEdgeStyle;rounded=0;orthogonalLoop=1;jettySize=auto;html=1;exitX=0.5;exitY=1;exitDx=0;exitDy=0;" edge="1" parent="1" source="NoZysELx-QJ5flpKnzf8-16" target="NoZysELx-QJ5flpKnzf8-18">
          <mxGeometry relative="1" as="geometry" />
        </mxCell>
        <mxCell id="NoZysELx-QJ5flpKnzf8-16" value="Ввод x, y, z" style="shape=parallelogram;perimeter=parallelogramPerimeter;whiteSpace=wrap;html=1;fixedSize=1;" vertex="1" parent="1">
          <mxGeometry x="140" y="110" width="120" height="60" as="geometry" />
        </mxCell>
        <mxCell id="NoZysELx-QJ5flpKnzf8-23" style="edgeStyle=orthogonalEdgeStyle;rounded=0;orthogonalLoop=1;jettySize=auto;html=1;exitX=0;exitY=0.5;exitDx=0;exitDy=0;entryX=0.5;entryY=0;entryDx=0;entryDy=0;" edge="1" parent="1" source="NoZysELx-QJ5flpKnzf8-18" target="NoZysELx-QJ5flpKnzf8-20">
          <mxGeometry relative="1" as="geometry" />
        </mxCell>
        <mxCell id="NoZysELx-QJ5flpKnzf8-26" style="edgeStyle=orthogonalEdgeStyle;rounded=0;orthogonalLoop=1;jettySize=auto;html=1;exitX=1;exitY=0.5;exitDx=0;exitDy=0;entryX=0.5;entryY=0;entryDx=0;entryDy=0;" edge="1" parent="1" source="NoZysELx-QJ5flpKnzf8-18" target="NoZysELx-QJ5flpKnzf8-25">
          <mxGeometry relative="1" as="geometry" />
        </mxCell>
        <mxCell id="NoZysELx-QJ5flpKnzf8-18" value="x + y &amp;gt; z И&amp;nbsp;&lt;div&gt;x + z &amp;gt; y И&lt;br&gt;z + y &amp;gt; x&amp;nbsp;&lt;/div&gt;" style="rhombus;whiteSpace=wrap;html=1;" vertex="1" parent="1">
          <mxGeometry x="130" y="200" width="140" height="80" as="geometry" />
        </mxCell>
        <mxCell id="NoZysELx-QJ5flpKnzf8-28" style="edgeStyle=orthogonalEdgeStyle;rounded=0;orthogonalLoop=1;jettySize=auto;html=1;exitX=0.5;exitY=1;exitDx=0;exitDy=0;" edge="1" parent="1" source="NoZysELx-QJ5flpKnzf8-20" target="NoZysELx-QJ5flpKnzf8-27">
          <mxGeometry relative="1" as="geometry" />
        </mxCell>
        <mxCell id="NoZysELx-QJ5flpKnzf8-20" value="Вывод &quot;Треугол.&lt;div&gt;с такими сторо-&lt;/div&gt;&lt;div&gt;нами существует&lt;/div&gt;" style="shape=parallelogram;perimeter=parallelogramPerimeter;whiteSpace=wrap;html=1;fixedSize=1;" vertex="1" parent="1">
          <mxGeometry y="270" width="130" height="60" as="geometry" />
        </mxCell>
        <mxCell id="NoZysELx-QJ5flpKnzf8-25" value="Вывод &quot;Треугол.&lt;div&gt;с такими&lt;/div&gt;&lt;div&gt;сторо&lt;span style=&quot;background-color: initial;&quot;&gt;нами&amp;nbsp;&lt;/span&gt;&lt;/div&gt;&lt;div&gt;не существует&lt;/div&gt;" style="shape=parallelogram;perimeter=parallelogramPerimeter;whiteSpace=wrap;html=1;fixedSize=1;" vertex="1" parent="1">
          <mxGeometry x="260" y="270" width="130" height="60" as="geometry" />
        </mxCell>
        <mxCell id="NoZysELx-QJ5flpKnzf8-27" value="Конец" style="strokeWidth=2;html=1;shape=mxgraph.flowchart.terminator;whiteSpace=wrap;" vertex="1" parent="1">
          <mxGeometry x="150" y="370" width="100" height="50" as="geometry" />
        </mxCell>
        <mxCell id="NoZysELx-QJ5flpKnzf8-29" style="edgeStyle=orthogonalEdgeStyle;rounded=0;orthogonalLoop=1;jettySize=auto;html=1;exitX=0.5;exitY=1;exitDx=0;exitDy=0;entryX=0.5;entryY=0;entryDx=0;entryDy=0;entryPerimeter=0;" edge="1" parent="1" source="NoZysELx-QJ5flpKnzf8-25" target="NoZysELx-QJ5flpKnzf8-27">
          <mxGeometry relative="1" as="geometry" />
        </mxCell>
        <mxCell id="NoZysELx-QJ5flpKnzf8-33" style="edgeStyle=orthogonalEdgeStyle;rounded=0;orthogonalLoop=1;jettySize=auto;html=1;exitX=0.5;exitY=1;exitDx=0;exitDy=0;exitPerimeter=0;entryX=0.5;entryY=0;entryDx=0;entryDy=0;" edge="1" parent="1" source="NoZysELx-QJ5flpKnzf8-30" target="NoZysELx-QJ5flpKnzf8-32">
          <mxGeometry relative="1" as="geometry" />
        </mxCell>
        <mxCell id="NoZysELx-QJ5flpKnzf8-30" value="Начало" style="strokeWidth=2;html=1;shape=mxgraph.flowchart.terminator;whiteSpace=wrap;" vertex="1" parent="1">
          <mxGeometry x="100" y="510" width="100" height="50" as="geometry" />
        </mxCell>
        <mxCell id="NoZysELx-QJ5flpKnzf8-36" style="edgeStyle=orthogonalEdgeStyle;rounded=0;orthogonalLoop=1;jettySize=auto;html=1;exitX=0.5;exitY=1;exitDx=0;exitDy=0;entryX=0.5;entryY=0;entryDx=0;entryDy=0;" edge="1" parent="1" source="NoZysELx-QJ5flpKnzf8-32" target="NoZysELx-QJ5flpKnzf8-34">
          <mxGeometry relative="1" as="geometry" />
        </mxCell>
        <mxCell id="NoZysELx-QJ5flpKnzf8-32" value="S := 0&lt;br&gt;a := 2" style="rounded=0;whiteSpace=wrap;html=1;" vertex="1" parent="1">
          <mxGeometry x="90" y="590" width="120" height="60" as="geometry" />
        </mxCell>
        <mxCell id="NoZysELx-QJ5flpKnzf8-38" style="edgeStyle=orthogonalEdgeStyle;rounded=0;orthogonalLoop=1;jettySize=auto;html=1;exitX=0.5;exitY=1;exitDx=0;exitDy=0;entryX=0.5;entryY=0;entryDx=0;entryDy=0;" edge="1" parent="1" source="NoZysELx-QJ5flpKnzf8-34" target="NoZysELx-QJ5flpKnzf8-37">
          <mxGeometry relative="1" as="geometry" />
        </mxCell>
        <mxCell id="NoZysELx-QJ5flpKnzf8-39" value="Да" style="edgeLabel;html=1;align=center;verticalAlign=middle;resizable=0;points=[];" vertex="1" connectable="0" parent="NoZysELx-QJ5flpKnzf8-38">
          <mxGeometry x="-0.2063" y="-1" relative="1" as="geometry">
            <mxPoint as="offset" />
          </mxGeometry>
        </mxCell>
        <mxCell id="NoZysELx-QJ5flpKnzf8-49" style="edgeStyle=orthogonalEdgeStyle;rounded=0;orthogonalLoop=1;jettySize=auto;html=1;exitX=1;exitY=0.5;exitDx=0;exitDy=0;entryX=0.5;entryY=0;entryDx=0;entryDy=0;" edge="1" parent="1" source="NoZysELx-QJ5flpKnzf8-34" target="NoZysELx-QJ5flpKnzf8-48">
          <mxGeometry relative="1" as="geometry" />
        </mxCell>
        <mxCell id="NoZysELx-QJ5flpKnzf8-50" value="Нет" style="edgeLabel;html=1;align=center;verticalAlign=middle;resizable=0;points=[];" vertex="1" connectable="0" parent="NoZysELx-QJ5flpKnzf8-49">
          <mxGeometry x="-0.6322" y="5" relative="1" as="geometry">
            <mxPoint x="38" y="5" as="offset" />
          </mxGeometry>
        </mxCell>
        <mxCell id="NoZysELx-QJ5flpKnzf8-34" value="a &amp;lt;= 30" style="rhombus;whiteSpace=wrap;html=1;" vertex="1" parent="1">
          <mxGeometry x="65" y="670" width="170" height="80" as="geometry" />
        </mxCell>
        <mxCell id="NoZysELx-QJ5flpKnzf8-41" style="edgeStyle=orthogonalEdgeStyle;rounded=0;orthogonalLoop=1;jettySize=auto;html=1;exitX=0.5;exitY=1;exitDx=0;exitDy=0;" edge="1" parent="1" source="NoZysELx-QJ5flpKnzf8-37" target="NoZysELx-QJ5flpKnzf8-40">
          <mxGeometry relative="1" as="geometry" />
        </mxCell>
        <mxCell id="NoZysELx-QJ5flpKnzf8-44" value="Да" style="edgeLabel;html=1;align=center;verticalAlign=middle;resizable=0;points=[];" vertex="1" connectable="0" parent="NoZysELx-QJ5flpKnzf8-41">
          <mxGeometry x="-0.6057" y="1" relative="1" as="geometry">
            <mxPoint as="offset" />
          </mxGeometry>
        </mxCell>
        <mxCell id="NoZysELx-QJ5flpKnzf8-46" style="edgeStyle=orthogonalEdgeStyle;rounded=0;orthogonalLoop=1;jettySize=auto;html=1;exitX=0;exitY=0.5;exitDx=0;exitDy=0;" edge="1" parent="1" source="NoZysELx-QJ5flpKnzf8-37">
          <mxGeometry relative="1" as="geometry">
            <mxPoint x="150" y="660" as="targetPoint" />
            <Array as="points">
              <mxPoint x="40" y="830" />
              <mxPoint x="40" y="660" />
              <mxPoint x="50" y="660" />
            </Array>
          </mxGeometry>
        </mxCell>
        <mxCell id="NoZysELx-QJ5flpKnzf8-47" value="Нет" style="edgeLabel;html=1;align=center;verticalAlign=middle;resizable=0;points=[];" vertex="1" connectable="0" parent="NoZysELx-QJ5flpKnzf8-46">
          <mxGeometry x="-0.9034" y="-2" relative="1" as="geometry">
            <mxPoint x="10" y="-8" as="offset" />
          </mxGeometry>
        </mxCell>
        <mxCell id="NoZysELx-QJ5flpKnzf8-37" value="a mod 2 = 0" style="rhombus;whiteSpace=wrap;html=1;" vertex="1" parent="1">
          <mxGeometry x="65" y="790" width="170" height="80" as="geometry" />
        </mxCell>
        <mxCell id="NoZysELx-QJ5flpKnzf8-43" style="edgeStyle=orthogonalEdgeStyle;rounded=0;orthogonalLoop=1;jettySize=auto;html=1;exitX=0.5;exitY=1;exitDx=0;exitDy=0;" edge="1" parent="1" source="NoZysELx-QJ5flpKnzf8-40">
          <mxGeometry relative="1" as="geometry">
            <mxPoint x="150" y="660" as="targetPoint" />
            <Array as="points">
              <mxPoint x="150" y="980" />
              <mxPoint x="40" y="980" />
              <mxPoint x="40" y="660" />
            </Array>
          </mxGeometry>
        </mxCell>
        <mxCell id="NoZysELx-QJ5flpKnzf8-40" value="S := S * a" style="rounded=0;whiteSpace=wrap;html=1;" vertex="1" parent="1">
          <mxGeometry x="90" y="900" width="120" height="60" as="geometry" />
        </mxCell>
        <mxCell id="NoZysELx-QJ5flpKnzf8-48" value="Вывод S" style="shape=parallelogram;perimeter=parallelogramPerimeter;whiteSpace=wrap;html=1;fixedSize=1;" vertex="1" parent="1">
          <mxGeometry x="290" y="740" width="120" height="60" as="geometry" />
        </mxCell>
        <mxCell id="NoZysELx-QJ5flpKnzf8-51" value="Конец" style="strokeWidth=2;html=1;shape=mxgraph.flowchart.terminator;whiteSpace=wrap;" vertex="1" parent="1">
          <mxGeometry x="300" y="820" width="100" height="50" as="geometry" />
        </mxCell>
        <mxCell id="NoZysELx-QJ5flpKnzf8-52" style="edgeStyle=orthogonalEdgeStyle;rounded=0;orthogonalLoop=1;jettySize=auto;html=1;exitX=0.5;exitY=1;exitDx=0;exitDy=0;entryX=0.5;entryY=0;entryDx=0;entryDy=0;entryPerimeter=0;" edge="1" parent="1" source="NoZysELx-QJ5flpKnzf8-48" target="NoZysELx-QJ5flpKnzf8-51">
          <mxGeometry relative="1" as="geometry" />
        </mxCell>
      </root>
    </mxGraphModel>
  </diagram>
</mxfile>
